<svg xmlns="http://www.w3.org/2000/svg" width="202" height="44" viewBox="0 0 202 44">
  <g fill="#FFF" fill-rule="evenodd">
    <path d="M17.6308091,13.4998236 C17.6308091,14.8043518 17.4529216,15.9408556 17.0971411,16.9093691 C16.7413607,17.8778825 16.3164071,18.6882591 15.8222676,19.3405232 C15.3281281,19.9927874 14.7944654,20.4869194 14.2212636,20.8229343 C13.6480618,21.1589492 13.1242818,21.3269541 12.6499079,21.3269541 C13.0847506,21.3269541 13.5887654,21.4850763 14.1619672,21.8013256 C14.735169,22.1175749 15.2787143,22.6018243 15.7926194,23.2540885 C16.3065244,23.9063526 16.7413607,24.7364945 17.0971411,25.7445391 C17.4529216,26.7525837 17.6308091,27.9483833 17.6308091,29.3319739 L17.6308091,34.3721716 C17.6308091,35.4395129 17.4331563,36.457425 17.0378447,37.4259384 C16.6425331,38.3944518 16.1286357,39.2542416 15.4961372,40.0053337 C14.8636386,40.7564257 14.1718537,41.3592669 13.4207616,41.8138752 C12.6696696,42.2684835 11.9383541,42.4957843 11.2267932,42.4957843 L5.59363114,42.4957843 C4.09144707,42.4957843 2.45092855,42.476019 0.672026356,42.4364878 L0.672026356,40.9540768 C0.948744475,41.0726702 1.18592788,41.0726702 1.38358367,40.9540768 C1.58123947,40.8750144 1.75912702,40.7070095 1.91725166,40.450057 C2.0753763,40.1931045 2.15443744,39.7879161 2.15443744,39.2344799 L2.15443744,3.41942822 C2.15443744,2.86599199 2.0753763,2.46080368 1.91725166,2.20385114 C1.75912702,1.9468986 1.58123947,1.77889369 1.38358367,1.69983137 C1.18592788,1.62076905 0.948744475,1.62076905 0.672026356,1.69983137 L0.672026356,0.217420292 L9.80367861,0.217420292 C11.1872692,0.217420292 12.3731862,0.434838409 13.3614652,0.869681167 C14.3497442,1.30452392 15.1601208,1.88759979 15.7926194,2.61892624 C16.4251179,3.3502527 16.8896021,4.17051196 17.1860858,5.07972863 C17.4825695,5.98894531 17.6308091,6.91791363 17.6308091,7.86666146 L17.6308091,13.4998236 Z M6.24589202,1.58123849 L6.24589202,20.6153968 L9.15141773,20.6153968 C10.0211032,20.6153968 10.8314799,20.4276266 11.5825719,20.0520805 C12.3336639,19.6765345 12.9266224,18.9353364 13.3614652,17.8284639 C13.4405275,17.6308081 13.4899407,17.4331553 13.5097063,17.2354995 C13.5294719,17.0378437 13.5788851,16.8401909 13.6579474,16.6425351 C13.6579474,16.5239416 13.6777127,16.4251152 13.7172439,16.3460528 C13.7963062,15.9112101 13.855602,15.4566086 13.8951332,14.9822346 C13.9346643,14.5078607 13.9544296,13.9741981 13.9544296,13.3812307 L13.9544296,6.6807326 C13.9544296,5.65292245 13.7864247,4.79313262 13.4504099,4.10133732 C13.114395,3.40954202 12.728972,2.86599673 12.2941292,2.47068513 C11.8988176,2.19396701 11.4639814,1.99631418 10.9896075,1.8777207 C10.5152336,1.75912722 10.0013362,1.6603008 9.44789995,1.58123849 L6.24589202,1.58123849 Z M6.24589202,41.0726697 L8.73634263,41.0726697 C9.80368394,41.0726697 10.821596,40.7564251 11.7901095,40.1239266 C12.7586229,39.491428 13.4009946,38.4241027 13.7172439,36.9219186 C13.7963062,36.5661382 13.855602,36.2004804 13.8951332,35.8249344 C13.9346643,35.4493884 13.9544296,35.0442001 13.9544296,34.6093573 L13.9544296,29.2726775 C13.9544296,28.4820543 13.8951338,27.7507388 13.7765403,27.0787091 C13.7765403,26.9996467 13.756775,26.9403509 13.7172439,26.9008197 L13.7172439,26.7822268 C13.6777127,26.584571 13.6381821,26.3770356 13.598651,26.1596142 C13.5591198,25.9421928 13.499824,25.7346573 13.4207616,25.5370015 C12.9859189,24.3510667 12.3731951,23.4813943 11.5825719,22.927958 C10.7919487,22.3745218 9.98157209,22.0978078 9.15141773,22.0978078 L6.24589202,22.0978078 L6.24589202,41.0726697 Z M36.6649674,17.7691675 C36.6649674,17.8482298 36.6847327,18.0063521 36.7242638,18.243539 C36.763795,18.480726 36.763795,18.6783788 36.7242638,18.8365035 C36.6847327,19.6666578 36.398136,20.3485601 35.8644654,20.8822307 C35.3307947,21.4159014 34.688423,21.6827327 33.937331,21.6827327 C33.1467078,21.6827327 32.4845708,21.4060188 31.9509001,20.8525825 C31.4172295,20.2991463 31.1503982,19.6271266 31.1503982,18.8365035 C31.1503982,17.8482245 31.5259385,17.0971437 32.2770306,16.5832386 C32.3560929,16.5437075 32.4055061,16.5140595 32.4252717,16.4942939 L32.5142164,16.4053493 C32.7909345,16.2076935 32.968822,15.9210969 33.0478843,15.5455509 C33.1269467,15.1700048 32.8897633,14.8438777 32.336327,14.5671595 C31.9805466,14.3695037 31.6247715,14.2706773 31.268991,14.2706773 C30.0830563,14.191615 29.0354962,14.5473901 28.1262796,15.3380133 C27.2170629,16.1286365 26.6043391,17.5122063 26.2880898,19.4887643 L26.2880898,39.2937764 C26.2880898,39.8472126 26.3671509,40.2524009 26.5252756,40.5093534 C26.6834002,40.766306 26.8415225,40.9145456 26.9996471,40.9540768 C27.2368341,41.0726702 27.4937828,41.0726702 27.7705009,40.9540768 L27.7705009,42.4957843 L20.5956313,42.4957843 L20.5956313,40.9540768 C20.9118805,41.0726702 21.1490639,41.0726702 21.3071886,40.9540768 C21.5048444,40.9145456 21.7024972,40.766306 21.900153,40.5093534 C22.0978088,40.2524009 22.1966352,39.8472126 22.1966352,39.2937764 L22.1966352,16.7018315 C22.1966352,16.1483953 22.0978088,15.743207 21.900153,15.4862544 C21.7024972,15.2293019 21.5048444,15.061297 21.3071886,14.9822346 C21.1490639,14.9031723 20.9118805,14.9031723 20.5956313,14.9822346 L20.5956313,13.4998236 L26.2880898,13.4998236 L26.2880898,15.9309777 C26.5648079,15.496135 26.8415219,15.0909467 27.11824,14.7154007 C27.3949581,14.3398546 27.7210853,14.0236101 28.0966313,13.7666576 C28.4721774,13.509705 28.9070136,13.3021695 29.4011531,13.1440449 C29.8952926,12.9859203 30.517899,12.9068591 31.268991,12.9068591 C32.4153947,12.9068591 33.48272,13.3219301 34.470999,14.1520844 C35.459278,14.9822388 36.1905935,16.1879211 36.6649674,17.7691675 Z M59.4348016,39.9460372 C59.4348016,40.2622865 59.3557404,40.5884137 59.1976158,40.9244285 C59.0394911,41.2604434 58.8121904,41.5766879 58.5157067,41.8731716 C58.219223,42.1696553 57.8436826,42.4364867 57.3890743,42.6736736 C56.9344659,42.9108606 56.4106859,43.0294523 55.8177185,43.0294523 C54.8689707,43.0294523 54.0190635,42.8120342 53.2679715,42.3771914 C52.5168794,41.9423486 52.0029821,41.3691554 51.7262639,40.6575945 C51.489077,40.262283 51.3111894,39.8076814 51.192596,39.2937764 C50.6786909,40.3611177 49.8979622,41.2505554 48.8503865,41.9621163 C47.8028107,42.6736772 46.6465416,43.0294523 45.3815445,43.0294523 C43.8002981,43.0294523 42.4167283,42.4562591 41.2307935,41.3098554 C40.5587638,40.716888 40.0053358,39.946042 39.5704931,38.9972941 C39.1356503,38.0485463 38.8787016,36.9614557 38.7996393,35.7359898 C38.7601082,35.6173963 38.7403429,35.3802129 38.7403429,35.0244324 L38.7403429,34.965136 C38.779874,34.2931063 38.8984657,33.5914387 39.0961215,32.8601123 C39.2937773,32.1287858 39.6001392,31.3974703 40.0152164,30.6661439 C40.4302936,29.9348174 40.9244257,29.2430325 41.4976275,28.5907684 C42.0708293,27.9385042 42.6934357,27.3751936 43.3654655,26.9008197 C43.5235901,26.8217574 43.6520644,26.7328136 43.7508923,26.6339857 C43.8497202,26.5351578 43.9979599,26.4264488 44.1956157,26.3078553 L44.5513943,26.129966 C45.2629552,25.6951232 45.8855616,25.2998175 46.4192323,24.9440371 C46.9529029,24.5882567 47.4371524,24.2522468 47.8719951,23.9359976 C48.1091821,23.7778729 48.3463655,23.5999854 48.5835525,23.4023296 C48.8207394,23.2046738 49.0776881,23.0070209 49.3544062,22.8093651 C49.7101867,22.5721782 50.0461965,22.2954642 50.3624458,21.9792149 C50.678695,21.6629657 50.9158784,21.2874253 51.0740031,20.8525825 C51.31119,20.4572709 51.4297817,19.9829041 51.4297817,19.4294679 C51.4297817,18.8760316 51.3704859,18.3818996 51.2518924,17.9470568 C51.0937678,17.0773713 50.6885795,16.3262905 50.0363153,15.693792 C49.3840512,15.0612934 48.6626183,14.6462225 47.8719951,14.4485667 C47.5162147,14.3299732 47.1802049,14.2706773 46.8639556,14.2706773 C45.7570831,14.2706773 44.8083495,14.4683302 44.0177263,14.8636418 C43.5038213,15.1008287 43.1282809,15.36766 42.8910939,15.6641437 C42.653907,15.9606274 42.5254326,16.2373414 42.505667,16.4942939 C42.4859014,16.7512465 42.5353147,16.958782 42.6539081,17.1169066 C42.7725016,17.2750312 42.9306239,17.3936229 43.1282797,17.4726853 C43.207342,17.5122164 43.2567552,17.5319817 43.2765208,17.5319817 C43.2962864,17.5319817 43.3456996,17.551747 43.4247619,17.5912781 C43.938667,17.7889339 44.3636206,18.1348264 44.6996354,18.6289659 C45.0356503,19.1231054 45.2036552,19.6666507 45.2036552,20.2596181 C45.2036552,21.0107101 44.9368239,21.6530818 44.4031532,22.1867525 C43.8694826,22.7204232 43.2271108,22.9872545 42.4760188,22.9872545 C41.6853956,22.9872545 41.013376,22.7204232 40.4599397,22.1867525 C39.9065035,21.6530818 39.6297895,21.0107101 39.6297895,20.2596181 C39.6297895,19.5875884 39.7187333,18.8859208 39.8966235,18.1545944 C40.0745137,17.4232679 40.3413451,16.7611309 40.6971255,16.1681635 C41.4482175,15.061291 42.3475379,14.2607971 43.3951137,13.7666576 C44.4426894,13.2725181 45.5989585,13.025452 46.8639556,13.025452 C47.8127034,13.025452 48.7515544,13.2033396 49.6805367,13.55912 C50.6095189,13.9149004 51.4396608,14.4189152 52.1709873,15.0711793 C52.9023137,15.7234434 53.5150375,16.5041721 54.009177,17.4133888 C54.5033165,18.3226055 54.7503825,19.3701655 54.7503825,20.5561003 L54.7503825,37.9892546 C54.7503825,38.7008155 54.7602652,39.1652996 54.7800308,39.382721 C54.7997963,39.6001424 54.809679,39.748382 54.809679,39.8274443 C54.809679,40.3413494 54.9678013,40.7564204 55.2840505,41.0726697 C55.6002998,41.3889189 55.9758402,41.5470412 56.410683,41.5470412 C56.924588,41.5470412 57.339659,41.3988016 57.6559083,41.1023179 C57.9721575,40.8058342 58.1500451,40.4204111 58.1895763,39.9460372 L59.4348016,39.9460372 Z M50.12526,38.4636262 C50.4415093,37.9101899 50.6292794,37.3172314 50.6885762,36.6847329 C50.7478729,36.0522343 50.7775209,35.4592758 50.7775209,34.9058396 L50.7775209,23.9359976 C50.6193962,24.0941222 50.4513913,24.2423618 50.2735011,24.3807209 C50.0956109,24.51908 49.9078407,24.6870849 49.7101849,24.8847407 C48.5637812,25.714895 47.5853997,26.4758584 46.7750109,27.1676537 C45.9646222,27.859449 45.2827199,28.5709992 44.7292836,29.3023257 C44.1758474,30.0336521 43.7410112,30.8143808 43.4247619,31.6445352 C43.1085126,32.4746895 42.9108598,33.4234231 42.8317975,34.4907645 L42.8317975,35.3802111 C42.8713286,36.8823952 43.2765169,38.0584295 44.0473746,38.9083495 C44.8182322,39.7582694 45.9152054,40.183223 47.3383271,40.183223 C47.9708257,40.183223 48.5440189,40.0251007 49.057924,39.7088515 C49.5718291,39.353071 49.9276042,38.9380001 50.12526,38.4636262 Z M78.6468492,15.160124 L78.5282563,15.160124 C78.4887251,15.160124 78.4491945,15.1502413 78.4096634,15.1304758 C78.3701322,15.1107102 78.3306017,15.1008275 78.2910705,15.1008275 C78.0934147,15.1008275 77.8562313,15.2095366 77.5795132,15.426958 C77.3027951,15.6443793 77.1644381,16.1286288 77.1644381,16.8797208 L77.1644381,28.1756933 C77.1644381,29.5790494 77.1545554,30.9527366 77.1347899,32.2967961 C77.1150243,33.6408555 77.1051416,34.8366551 77.1051416,35.8842309 L77.1051416,39.5309621 C77.1051416,40.2820542 77.233616,40.726773 77.4905685,40.8651321 C77.7475211,41.0034912 77.9945871,41.0726697 78.2317741,41.0726697 C78.3108364,41.0726697 78.3701322,41.0529044 78.4096634,41.0133732 C78.4491945,41.0133732 78.4887251,40.9936079 78.5282563,40.9540768 L78.5282563,42.4957843 L72.9543906,42.4957843 L72.9543906,40.3018159 C72.796266,40.5390028 72.6480263,40.7366557 72.5096673,40.8947803 C72.3713082,41.052905 72.2033033,41.2307925 72.0056475,41.4284483 C71.4126801,41.9818845 70.7011299,42.4167208 69.8709756,42.7329701 C69.8314444,42.7329701 69.8116791,42.7428527 69.8116791,42.7626183 C69.8116791,42.7823839 69.7919138,42.7922665 69.7523827,42.7922665 L69.6930862,42.7922665 C69.2187123,42.9503911 68.6652844,43.0294523 68.0327858,43.0294523 L67.7956001,43.0294523 C65.7795109,42.95039 64.148875,42.2684877 62.9036435,40.983725 C61.658412,39.6989623 61.0358055,37.6334902 61.0358055,34.7872467 L61.0358055,26.1892624 C61.0358055,25.0033276 61.0456882,23.8569412 61.0654537,22.7500687 C61.0852193,21.6431962 61.095102,20.6549321 61.095102,19.7852465 C61.095102,18.915561 61.1049846,18.2237761 61.1247502,17.709871 C61.1445158,17.195966 61.1543984,16.919252 61.1543984,16.8797208 C61.1543984,16.1286288 61.0061588,15.6443793 60.7096751,15.426958 C60.4131914,15.2095366 60.1661253,15.1008275 59.9684695,15.1008275 C59.8894072,15.1008275 59.8301114,15.1107102 59.7905802,15.1304758 C59.7510491,15.1502413 59.7115185,15.160124 59.6719873,15.160124 L59.5533944,15.160124 L59.5533944,13.6777129 L66.6689676,13.6777129 L66.6689676,15.160124 L66.6096712,15.160124 C66.57014,15.160124 66.5306095,15.1502413 66.4910783,15.1304758 C66.4515471,15.1107102 66.3922513,15.1008275 66.313189,15.1008275 C66.076002,15.1008275 65.8388186,15.1897713 65.6016317,15.3676615 C65.3644447,15.5455517 65.2260877,15.9507401 65.1865565,16.5832386 L65.1865565,19.7259501 C65.1865565,20.9909472 65.1766739,22.3152212 65.1569083,23.6988118 C65.1371427,25.0824024 65.1272601,26.4758549 65.1272601,27.879211 L65.1272601,36.0917684 C65.2063224,38.1078576 65.4533885,39.530958 65.8684656,40.3611123 C66.2835428,41.1912667 66.9654451,41.6261029 67.9141929,41.6656341 L68.1513787,41.6656341 C69.3373135,41.6656341 70.3848735,41.1912673 71.2940902,40.2425194 C72.2033069,39.2937716 72.7567348,37.6927837 72.9543906,35.4395075 C72.9543906,33.5420119 72.9642732,31.5160703 72.9840388,29.3616221 C73.0038044,27.2071739 73.0136871,25.2009976 73.0136871,23.3430331 L73.0136871,16.8797208 C73.0136871,16.1286288 72.8950954,15.6443793 72.6579084,15.426958 C72.4207214,15.2095366 72.183538,15.1008275 71.9463511,15.1008275 C71.8672888,15.1008275 71.8079929,15.1107102 71.7684617,15.1304758 C71.7289306,15.1502413 71.6894,15.160124 71.6498689,15.160124 L71.531276,15.160124 L71.531276,13.6777129 L78.6468492,13.6777129 L78.6468492,15.160124 Z M92.403624,42.1400056 C92.3640928,42.1795368 92.3344449,42.1993021 92.3146793,42.1993021 C92.2949137,42.1993021 92.2652658,42.2190674 92.2257346,42.2585985 L92.1664382,42.317895 C92.0873759,42.3574261 91.9984321,42.3969567 91.8996042,42.4364878 C91.8007763,42.476019 91.7118325,42.5155496 91.6327702,42.5550807 C90.8026159,42.9108612 89.834117,43.0887487 88.7272445,43.0887487 C88.0947459,43.0887487 87.4820222,42.9405091 86.8890548,42.6440254 C86.2960874,42.3475417 85.78219,42.1004757 85.3473472,41.9028199 C84.9125045,41.7051641 84.5468467,41.6162203 84.250363,41.6359859 C83.9538793,41.6557514 83.8056397,41.9423481 83.8056397,42.4957843 L82.6790073,42.4957843 L82.6790073,35.3802111 L84.1021219,35.3802111 C84.0230596,36.6452082 84.1614166,37.7322988 84.517197,38.6415155 C84.754384,39.4321387 85.2188681,40.1733368 85.9106634,40.8651321 C86.6024587,41.5569274 87.6401361,41.9028199 89.0237267,41.9028199 C89.9329434,41.9028199 90.6840242,41.7446976 91.2769916,41.4284483 C92.3048017,40.9145432 93.0064693,40.3018194 93.3820153,39.5902586 C93.7575613,38.8786977 93.9058009,38.1374996 93.8267386,37.366642 C93.7476763,36.5957843 93.4610797,35.8348209 92.9669402,35.0837289 C92.4728007,34.3326369 91.8699595,33.6408519 91.1583987,33.0083534 C90.6840248,32.6525729 90.1898927,32.2770326 89.6759876,31.881721 C89.1620825,31.4864094 88.6481851,31.0713384 88.1342801,30.6364956 C86.7506895,29.5296232 85.6537162,28.5314764 84.8433275,27.6420253 C84.0329387,26.7525742 83.4103323,25.9224323 82.9754895,25.1515747 C82.5406468,24.380717 82.2441675,23.6494016 82.0860429,22.9576063 C81.9279182,22.265811 81.8488571,21.5246128 81.8488571,20.7339896 C81.8488571,20.2596157 81.878505,19.8247795 81.9378018,19.4294679 C81.9970985,19.0341563 82.066277,18.6783812 82.1453393,18.3621319 C82.2639328,17.6901022 82.4615856,17.0378478 82.7383037,16.4053493 C83.0150219,15.7728507 83.4103275,15.2095401 83.9242326,14.7154007 C84.4381377,14.2212612 85.0706267,13.8160728 85.8217188,13.4998236 C86.5728108,13.1835743 87.4820139,13.025452 88.5493552,13.025452 C89.1423226,13.025452 89.7352811,13.1539264 90.3282485,13.4108789 C90.9212159,13.6678314 91.4548785,13.9050148 91.9292524,14.1224362 C92.4036263,14.3398576 92.7791667,14.438684 93.0558849,14.4189184 C93.332603,14.3991529 93.47096,14.092791 93.47096,13.4998236 L94.5975924,13.4998236 L94.5975924,20.8525825 L93.0558849,20.8525825 C93.095416,19.6666477 92.957059,18.5993224 92.6408097,17.6505746 C92.3640916,16.8204202 91.8798422,16.0693395 91.1880469,15.3973097 C90.4962516,14.72528 89.4783395,14.3892702 88.1342801,14.3892702 C87.0669388,14.3892702 86.1972663,14.6264536 85.5252366,15.1008275 C85.1694561,15.3775457 84.8630942,15.782734 84.6061417,16.3164046 C84.3491892,16.8500753 84.2009495,17.4331511 84.1614184,18.0656497 C84.1218872,18.6981482 84.2207136,19.3800505 84.4579006,20.111377 C84.6950875,20.8427034 85.1694543,21.5246057 85.8810152,22.1571043 C85.9600775,22.2756978 86.0687866,22.3942895 86.2071457,22.5128829 C86.3455047,22.6314764 86.4937443,22.7303028 86.651869,22.8093651 C86.7704625,22.8884275 86.8692889,22.9674886 86.9483512,23.0465509 L87.185537,23.2837367 C87.6203797,23.6395171 88.0650986,23.9952922 88.5197069,24.3510727 C88.9743153,24.7068531 89.4387994,25.0626282 89.9131734,25.4184086 C91.0200458,26.3671565 91.9391315,27.2269463 92.670458,27.9978039 C93.4017844,28.7686615 94.0145082,29.4900944 94.5086477,30.1621241 C95.0027872,30.8341538 95.3684449,31.4666429 95.6056319,32.0596103 C95.8428189,32.6525777 95.9811759,33.2257709 96.020707,33.7792071 C96.4160186,35.5976405 96.3468401,37.12945 95.8131695,38.3746815 C95.2794988,39.619913 94.5975965,40.5982945 93.7674422,41.3098554 L93.7081457,41.3098554 C93.7081457,41.3889177 93.6686152,41.4284483 93.5895528,41.4284483 C93.5104905,41.5075106 93.4314294,41.5668065 93.3523671,41.6063376 L92.9965884,41.8435234 C92.8779949,41.9225857 92.7594032,41.9818816 92.6408097,42.0214127 L92.6408097,42.0807092 C92.6012786,42.0807092 92.561748,42.0905918 92.5222169,42.1103574 C92.4826857,42.130123 92.4431551,42.1400056 92.403624,42.1400056 Z M107.464921,13.0847485 C108.374137,13.0847485 109.303106,13.2428707 110.251853,13.55912 C111.200601,13.8753693 112.050508,14.3695014 112.8016,15.0415311 C113.552692,15.7135608 114.155534,16.563468 114.610142,17.5912781 C115.06475,18.6190883 115.292051,19.8445359 115.292051,21.2676576 L115.292051,28.7983059 L103.492059,28.7983059 L103.492059,34.9058396 C103.492059,37.3567715 103.917012,39.105999 104.766932,40.1535748 C105.616852,41.2011505 106.674295,41.7051652 107.939292,41.6656341 C108.690384,41.6261029 109.431582,41.4976286 110.162909,41.2802072 C110.894235,41.0627858 111.526724,40.6971281 112.060395,40.183223 C112.594066,39.6693179 113.038784,38.9380024 113.394565,37.9892546 C113.750345,37.0405068 113.928233,35.7952939 113.928233,34.2535787 L115.292051,34.2535787 L115.292051,35.0837289 C115.292051,36.1510702 115.173459,37.1689823 114.936272,38.1374957 C114.699085,39.1060091 114.284014,39.9460337 113.691047,40.6575945 C113.09808,41.3691554 112.337116,41.932466 111.408134,42.3475432 C110.479152,42.7626204 109.342648,42.9899211 107.998589,43.0294523 C107.049841,43.0294523 106.081342,42.8515647 105.093063,42.4957843 C104.104784,42.1400039 103.215346,41.6063412 102.424723,40.8947803 C101.6341,40.1832194 100.981845,39.3431949 100.46794,38.3746815 C99.9540352,37.4061681 99.6970865,36.3091948 99.6970865,35.0837289 L99.6970865,33.6902625 C99.6970865,33.0379983 99.6872038,32.2770349 99.6674383,31.4073494 C99.6476727,30.5376639 99.63779,29.5988129 99.63779,28.5907684 C99.63779,27.5827238 99.6279074,26.6043423 99.6081418,25.6555944 C99.5883762,24.7068466 99.5784936,23.8470568 99.5784936,23.0761991 L99.5784936,21.3269541 C99.5784936,19.9038323 99.8255596,18.6685021 100.319699,17.6209264 C100.813839,16.5733506 101.426562,15.7234434 102.157889,15.0711793 C102.889215,14.4189152 103.719357,13.9247831 104.648339,13.5887682 C105.577322,13.2527534 106.516173,13.0847485 107.464921,13.0847485 Z M111.319189,27.2565984 L111.319189,22.5721794 C111.319189,21.0699953 111.220363,19.8148998 111.022707,18.8068552 C110.825051,17.7988107 110.55822,16.988434 110.222205,16.3757011 C109.88619,15.7629681 109.481002,15.3380145 109.006628,15.1008275 C108.532254,14.8636406 107.998591,14.7450489 107.405624,14.7450489 C106.140627,14.7450489 105.182011,15.2984768 104.529747,16.4053493 C103.877482,17.5122218 103.551355,19.5678112 103.551355,22.5721794 L103.551355,27.2565984 L111.319189,27.2565984 Z M150.178125,39.2937764 C150.178125,39.8472126 150.267069,40.2524009 150.444959,40.5093534 C150.622849,40.766306 150.790854,40.9145456 150.948979,40.9540768 C151.146635,41.0726702 151.403583,41.0726702 151.719833,40.9540768 L151.719833,42.4957843 L144.544963,42.4957843 L144.544963,40.9540768 C144.861212,41.0726702 145.137926,41.0726702 145.375113,40.9540768 C145.493707,40.9145456 145.651829,40.766306 145.849485,40.5093534 C146.047141,40.2524009 146.145967,39.8472126 146.145967,39.2937764 L146.145967,3.36013178 C146.145967,2.76716438 146.047141,2.34221079 145.849485,2.08525825 C145.651829,1.82830571 145.493707,1.6603008 145.375113,1.58123849 C145.137926,1.46264501 144.861212,1.46264501 144.544963,1.58123849 L144.544963,0.158123849 L150.178125,0.158123849 L150.178125,39.2937764 Z M161.740932,7.03651126 C161.740932,7.78760329 161.483983,8.41020972 160.970078,8.90434922 C160.456173,9.39848872 159.843449,9.64555476 159.131888,9.64555476 C158.420327,9.64555476 157.827369,9.39848872 157.352995,8.90434922 C156.878621,8.41020972 156.641437,7.78760329 156.641437,7.03651126 C156.641437,6.32495038 156.878621,5.73199188 157.352995,5.25761796 C157.827369,4.78324405 158.420327,4.54606064 159.131888,4.54606064 C159.843449,4.54606064 160.456173,4.78324405 160.970078,5.25761796 C161.483983,5.73199188 161.740932,6.32495038 161.740932,7.03651126 Z M161.207264,39.2937764 C161.207264,39.8472126 161.286325,40.2524009 161.444449,40.5093534 C161.602574,40.766306 161.780462,40.9145456 161.978117,40.9540768 C162.175773,41.0726702 162.412957,41.0726702 162.689675,40.9540768 L162.689675,42.4957843 L155.574101,42.4957843 L155.574101,40.9540768 C155.85082,41.0726702 156.107768,41.0726702 156.344955,40.9540768 C156.542611,40.9145456 156.720499,40.766306 156.878623,40.5093534 C157.036748,40.2524009 157.115809,39.8472126 157.115809,39.2937764 L157.115809,16.7018315 C157.115809,16.1879264 157.036748,15.8025034 156.878623,15.5455509 C156.720499,15.2885983 156.542611,15.1205934 156.344955,15.0415311 C156.107768,14.9624688 155.85082,14.9624688 155.574101,15.0415311 L155.574101,13.55912 L161.207264,13.55912 L161.207264,39.2937764 Z M174.548963,13.0847485 C175.45818,13.0847485 176.387148,13.2428707 177.335896,13.55912 C178.284644,13.8753693 179.134551,14.3695014 179.885643,15.0415311 C180.636735,15.7135608 181.239576,16.563468 181.694185,17.5912781 C182.148793,18.6190883 182.376094,19.8445359 182.376094,21.2676576 L182.376094,28.7983059 L170.576102,28.7983059 L170.576102,34.9058396 C170.576102,37.3567715 171.001055,39.105999 171.850975,40.1535748 C172.700895,41.2011505 173.758338,41.7051652 175.023335,41.6656341 C175.774427,41.6261029 176.515625,41.4976286 177.246951,41.2802072 C177.978278,41.0627858 178.610767,40.6971281 179.144438,40.183223 C179.678108,39.6693179 180.122827,38.9380024 180.478608,37.9892546 C180.834388,37.0405068 181.012276,35.7952939 181.012276,34.2535787 L182.376094,34.2535787 L182.376094,35.0837289 C182.376094,36.1510702 182.257502,37.1689823 182.020315,38.1374957 C181.783128,39.1060091 181.368057,39.9460337 180.77509,40.6575945 C180.182122,41.3691554 179.421159,41.932466 178.492177,42.3475432 C177.563194,42.7626204 176.426691,42.9899211 175.082631,43.0294523 C174.133883,43.0294523 173.165385,42.8515647 172.177106,42.4957843 C171.188827,42.1400039 170.299389,41.6063412 169.508766,40.8947803 C168.718142,40.1832194 168.065888,39.3431949 167.551983,38.3746815 C167.038078,37.4061681 166.781129,36.3091948 166.781129,35.0837289 L166.781129,33.6902625 C166.781129,33.0379983 166.771247,32.2770349 166.751481,31.4073494 C166.731715,30.5376639 166.721833,29.5988129 166.721833,28.5907684 C166.721833,27.5827238 166.71195,26.6043423 166.692185,25.6555944 C166.672419,24.7068466 166.662536,23.8470568 166.662536,23.0761991 L166.662536,21.3269541 C166.662536,19.9038323 166.909602,18.6685021 167.403742,17.6209264 C167.897881,16.5733506 168.510605,15.7234434 169.241932,15.0711793 C169.973258,14.4189152 170.8034,13.9247831 171.732382,13.5887682 C172.661364,13.2527534 173.600215,13.0847485 174.548963,13.0847485 Z M178.403232,27.2565984 L178.403232,22.5721794 C178.403232,21.0699953 178.304406,19.8148998 178.10675,18.8068552 C177.909094,17.7988107 177.642263,16.988434 177.306248,16.3757011 C176.970233,15.7629681 176.565045,15.3380145 176.090671,15.1008275 C175.616297,14.8636406 175.082634,14.7450489 174.489667,14.7450489 C173.22467,14.7450489 172.266053,15.2984768 171.613789,16.4053493 C170.961525,17.5122218 170.635398,19.5678112 170.635398,22.5721794 L170.635398,27.2565984 L178.403232,27.2565984 Z M201.706734,17.7691675 C201.706734,17.8482298 201.7265,18.0063521 201.766031,18.243539 C201.805562,18.480726 201.805562,18.6783788 201.766031,18.8365035 C201.7265,19.6666578 201.439903,20.3485601 200.906232,20.8822307 C200.372562,21.4159014 199.73019,21.6827327 198.979098,21.6827327 C198.188475,21.6827327 197.526338,21.4060188 196.992667,20.8525825 C196.458996,20.2991463 196.192165,19.6271266 196.192165,18.8365035 C196.192165,17.8482245 196.567705,17.0971437 197.318797,16.5832386 C197.39786,16.5437075 197.447273,16.5140595 197.467039,16.4942939 L197.555983,16.4053493 C197.832701,16.2076935 198.010589,15.9210969 198.089651,15.5455509 C198.168714,15.1700048 197.93153,14.8438777 197.378094,14.5671595 C197.022313,14.3695037 196.666538,14.2706773 196.310758,14.2706773 C195.124823,14.191615 194.077263,14.5473901 193.168046,15.3380133 C192.25883,16.1286365 191.646106,17.5122063 191.329857,19.4887643 L191.329857,39.2937764 C191.329857,39.8472126 191.408918,40.2524009 191.567042,40.5093534 C191.725167,40.766306 191.883289,40.9145456 192.041414,40.9540768 C192.278601,41.0726702 192.53555,41.0726702 192.812268,40.9540768 L192.812268,42.4957843 L185.637398,42.4957843 L185.637398,40.9540768 C185.953647,41.0726702 186.190831,41.0726702 186.348955,40.9540768 C186.546611,40.9145456 186.744264,40.766306 186.94192,40.5093534 C187.139576,40.2524009 187.238402,39.8472126 187.238402,39.2937764 L187.238402,16.7018315 C187.238402,16.1483953 187.139576,15.743207 186.94192,15.4862544 C186.744264,15.2293019 186.546611,15.061297 186.348955,14.9822346 C186.190831,14.9031723 185.953647,14.9031723 185.637398,14.9822346 L185.637398,13.4998236 L191.329857,13.4998236 L191.329857,15.9309777 C191.606575,15.496135 191.883289,15.0909467 192.160007,14.7154007 C192.436725,14.3398546 192.762852,14.0236101 193.138398,13.7666576 C193.513944,13.509705 193.94878,13.3021695 194.44292,13.1440449 C194.937059,12.9859203 195.559666,12.9068591 196.310758,12.9068591 C197.457162,12.9068591 198.524487,13.3219301 199.512766,14.1520844 C200.501045,14.9822388 201.23236,16.1879211 201.706734,17.7691675 Z"/>
    <path d="M9.89731265,12.8475627 L0.41240294,12.8475627 L3.16238291,42.4957843 L13.4748078,42.4957843 L16.2247878,12.8475627 L11.8887043,12.8475627 L13.4366102,0.24088062 L11.474795,2.30926389e-14 L9.89731265,12.8475627 Z" transform="translate(122.134)"/>
  </g>
</svg>
