<?xml version="1.0" standalone="no"?>
<!DOCTYPE svg PUBLIC "-//W3C//DTD SVG 20010904//EN"
 "http://www.w3.org/TR/2001/REC-SVG-20010904/DTD/svg10.dtd">
<svg version="1.0" xmlns="http://www.w3.org/2000/svg"
 width="800.000000pt" height="800.000000pt" viewBox="0 0 800.000000 800.000000"
 preserveAspectRatio="xMidYMid meet">
<metadata>
Created by potrace 1.11, written by Peter Selinger 2001-2013
</metadata>
<g transform="translate(0.000000,800.000000) scale(0.100000,-0.100000)"
fill="#000000" stroke="none">
<path d="M0 4000 l0 -4000 4000 0 4000 0 0 4000 0 4000 -4000 0 -4000 0 0
-4000z m4583 2849 c87 -10 107 -15 106 -28 0 -9 -46 -389 -103 -846 -57 -456
-101 -833 -99 -837 2 -5 134 -8 294 -8 l289 0 -5 -37 c-7 -47 -365 -3917 -365
-3944 0 -19 -16 -19 -700 -19 -684 0 -700 0 -700 19 0 27 -358 3897 -365 3944
l-5 37 640 0 640 0 4 23 c3 12 51 398 106 857 56 459 103 841 106 849 2 8 13
11 27 8 12 -3 70 -11 130 -18z"/>
</g>
</svg>
